{
	"asset": {
		"generator": "Tilt Brush 18.4.d486fed",
		"version": "1.1",
		"copyright": "Unknown."
	},
	"buffers": {
		"sketch": {
			"byteLength": 363084,
			"type": "arraybuffer",
			"uri": "sketch.bin"
		}
	},
	"accessors": {
		"accessor_position_Stars_0eb4db27-3f82-408d-b5a1-19ebd7d5b711_0_0": {
			"bufferView": "vec3BufferView",
			"byteOffset": 0,
			"byteStride": 12,
			"componentType": 5126,
			"count": 4596,
			"max": [ 0.4326892, 0.4162065, 0.4278413 ],
			"min": [ -0.4412783, -0.4329005, -0.4394897 ],
			"type": "VEC3"
		 },
		"accessor_normal_Stars_0eb4db27-3f82-408d-b5a1-19ebd7d5b711_0_0": {
			"bufferView": "vec3BufferView",
			"byteOffset": 55152,
			"byteStride": 12,
			"componentType": 5126,
			"count": 4596,
			"max": [ 0.422096, 0.4082732, 0.4188106 ],
			"min": [ -0.4310771, -0.4243467, -0.431448 ],
			"type": "VEC3"
		 },
		"accessor_color_Stars_0eb4db27-3f82-408d-b5a1-19ebd7d5b711_0_0": {
			"bufferView": "vec4BufferView",
			"byteOffset": 0,
			"byteStride": 16,
			"componentType": 5126,
			"count": 4596,
			"max": [ 0.6156863, 0.3529412, 0.003921569, 0.9960784 ],
			"min": [ 0.6156863, 0.3529412, 0.003921569, 0 ],
			"type": "VEC4"
		 },
		"accessor_vertexId_Stars_0eb4db27-3f82-408d-b5a1-19ebd7d5b711_0_0": {
			"bufferView": "floatBufferView",
			"byteOffset": 0,
			"byteStride": 0,
			"componentType": 5126,
			"count": 4596,
			"max": [ 4595 ],
			"min": [ 0 ],
			"type": "SCALAR"
		 },
		"accessor_uv0_Stars_0eb4db27-3f82-408d-b5a1-19ebd7d5b711_0_0": {
			"bufferView": "vec4BufferView",
			"byteOffset": 73536,
			"byteStride": 16,
			"componentType": 5126,
			"count": 4596,
			"max": [ 1, 1, 0, 712.8647 ],
			"min": [ 0, 0, 0, 706.4879 ],
			"type": "VEC4"
		 },
		"accessor_uv1_Stars_0eb4db27-3f82-408d-b5a1-19ebd7d5b711_0_0": {
			"bufferView": "vec4BufferView",
			"byteOffset": 147072,
			"byteStride": 16,
			"componentType": 5126,
			"count": 4596,
			"max": [ 0.2981283, 0.3016034, 0.2876007, 4595 ],
			"min": [ -0.2982534, -0.3021133, -0.3017314, 0 ],
			"type": "VEC4"
		 },
		"accessor_indices_0_Stars_0eb4db27-3f82-408d-b5a1-19ebd7d5b711_0_0": {
			"bufferView": "ushortBufferView",
			"byteOffset": 0,
			"byteStride": 0,
			"componentType": 5123,
			"count": 6894,
			"max": [ 4595 ],
			"min": [ 0 ],
			"type": "SCALAR"
		 }
	},
	"bufferViews": {
		"ushortBufferView": {
			"buffer": "sketch",
			"byteLength": 13788,
			"byteOffset": 0,
			"target": 34963
		},
		"floatBufferView": {
			"buffer": "sketch",
			"byteLength": 18384,
			"byteOffset": 13788,
			"target": 34962
		},
		"vec3BufferView": {
			"buffer": "sketch",
			"byteLength": 110304,
			"byteOffset": 32172,
			"target": 34962
		},
		"vec4BufferView": {
			"buffer": "sketch",
			"byteLength": 220608,
			"byteOffset": 142476,
			"target": 34962
		}
	},
	"meshes": {
		"mesh_Stars_0eb4db27-3f82-408d-b5a1-19ebd7d5b711_0_0": {
			"name": "mesh_Stars_0eb4db27-3f82-408d-b5a1-19ebd7d5b711_0_0",
			"primitives": [
				{
					"attributes": {
						"POSITION": "accessor_position_Stars_0eb4db27-3f82-408d-b5a1-19ebd7d5b711_0_0",
						"NORMAL": "accessor_normal_Stars_0eb4db27-3f82-408d-b5a1-19ebd7d5b711_0_0",
						"COLOR": "accessor_color_Stars_0eb4db27-3f82-408d-b5a1-19ebd7d5b711_0_0",
						"VERTEXID": "accessor_vertexId_Stars_0eb4db27-3f82-408d-b5a1-19ebd7d5b711_0_0",
						"TEXCOORD_0": "accessor_uv0_Stars_0eb4db27-3f82-408d-b5a1-19ebd7d5b711_0_0",
						"TEXCOORD_1": "accessor_uv1_Stars_0eb4db27-3f82-408d-b5a1-19ebd7d5b711_0_0"
					},
					"indices": "accessor_indices_0_Stars_0eb4db27-3f82-408d-b5a1-19ebd7d5b711_0_0",
					"material": "material_0eb4db27-3f82-408d-b5a1-19ebd7d5b711",
					"mode": 4
				}
			]
		}
	},
	"shaders": {
		"vertex_0eb4db27-3f82-408d-b5a1-19ebd7d5b711": {
			"type": 35633,
			"uri": "https://www.tiltbrush.com/shaders/brushes/Stars-0eb4db27-3f82-408d-b5a1-19ebd7d5b711/Stars-0eb4db27-3f82-408d-b5a1-19ebd7d5b711-v10.0-vertex.glsl"
		},
		"fragment_0eb4db27-3f82-408d-b5a1-19ebd7d5b711": {
			"type": 35632,
			"uri": "https://www.tiltbrush.com/shaders/brushes/Stars-0eb4db27-3f82-408d-b5a1-19ebd7d5b711/Stars-0eb4db27-3f82-408d-b5a1-19ebd7d5b711-v10.0-fragment.glsl"
		}
	},
	"programs": {
		"program_0eb4db27-3f82-408d-b5a1-19ebd7d5b711": {
			"attributes": [
				"a_position",
				"a_normal",
				"a_color",
				"a_vertexId",
				"a_texcoord0",
				"a_texcoord1"				
			],
			"vertexShader": "vertex_0eb4db27-3f82-408d-b5a1-19ebd7d5b711",
			"fragmentShader": "fragment_0eb4db27-3f82-408d-b5a1-19ebd7d5b711"
		}
	},
	"techniques": {
		"technique_0eb4db27-3f82-408d-b5a1-19ebd7d5b711": {
			"program": "program_0eb4db27-3f82-408d-b5a1-19ebd7d5b711",
			"parameters": {
				"position": {
					"type": 35665,
					"semantic": "POSITION"
				},
				"normal": {
					"type": 35665,
					"semantic": "NORMAL"
				},
				"color": {
					"type": 35666,
					"semantic": "COLOR"
				},
				"vertexId": {
					"type": 5126
				},
				"texcoord0": {
					"type": 35666,
					"semantic": "TEXCOORD_0"
				},
				"texcoord1": {
					"type": 35666,
					"semantic": "TEXCOORD_1"
				},
				"modelViewMatrix": {
					"type": 35676,
					"semantic": "MODELVIEW"
				},
				"projectionMatrix": {
					"type": 35676,
					"semantic": "PROJECTION"
				},
				"normalMatrix": {
					"type": 35675,
					"semantic": "MODELVIEWINVERSETRANSPOSE"
				},
				"SceneLight_0_matrix": {
					"type": 35676,
					"semantic": "MODELVIEW",
					"node": "node_SceneLight_0_-1114"
				},
				"SceneLight_0_color": {
					"type": 35666,
					"node": "node_SceneLight_0_-1114"
				},
				"SceneLight_1_matrix": {
					"type": 35676,
					"semantic": "MODELVIEW",
					"node": "node_SceneLight_1_-1120"
				},
				"SceneLight_1_color": {
					"type": 35666,
					"node": "node_SceneLight_1_-1120"
				},
				"ambient_light_color": {
					"type": 35666
				},
				"SparkleRate": {
					"type": 5126
				},
				"SpreadRate": {
					"type": 5126
				},
				"MainTex_TexelSize": {
					"type": 35666
				},
				"MainTex": {
					"type": 35678
				}				
			},
			"attributes": {
				"a_position": "position",
				"a_normal": "normal",
				"a_color": "color",
				"a_vertexId": "vertexId",
				"a_texcoord0": "texcoord0",
				"a_texcoord1": "texcoord1"				
			},
			"uniforms": {
				"u_modelViewMatrix": "modelViewMatrix",
				"u_projectionMatrix": "projectionMatrix",
				"u_normalMatrix": "normalMatrix",
				"u_SceneLight_0_matrix": "SceneLight_0_matrix",
				"u_SceneLight_0_color": "SceneLight_0_color",
				"u_SceneLight_1_matrix": "SceneLight_1_matrix",
				"u_SceneLight_1_color": "SceneLight_1_color",
				"u_ambient_light_color": "ambient_light_color",
				"u_SparkleRate": "SparkleRate",
				"u_SpreadRate": "SpreadRate",
				"u_MainTex_TexelSize": "MainTex_TexelSize",
				"u_MainTex": "MainTex"				
			},
			"states": {
				"enable": [
					2929,
					3042
				],
				"functions": {
					"blendFuncSeparate": [1, 1, 1, 1],
					"depthMask": [false]
				}
			}
		}
	},
	"samplers": {
		"sampler_LINEAR_LINEAR_REPEAT": {
			"magFilter": 9729,
			"minFilter": 9987,
			"wrapS": 10497,
			"wrapT": 10497
		}
	},
	"textures": {
		"texture_0eb4db27-3f82-408d-b5a1-19ebd7d5b711_MainTex": {
			"format": 6408,
			"internalFormat": 6408,
			"sampler": "sampler_LINEAR_LINEAR_REPEAT",
			"source": "image_0eb4db27-3f82-408d-b5a1-19ebd7d5b711_MainTex",
			"target": 3553,
			"type": 5121
		}
	},
	"images": {
		"image_0eb4db27-3f82-408d-b5a1-19ebd7d5b711_MainTex": {
			"uri": "https://www.tiltbrush.com/shaders/brushes/Stars-0eb4db27-3f82-408d-b5a1-19ebd7d5b711/Stars-0eb4db27-3f82-408d-b5a1-19ebd7d5b711-v10.0-MainTex.png"
		}
	},
	"materials": {
		"material_0eb4db27-3f82-408d-b5a1-19ebd7d5b711": {
			"technique": "technique_0eb4db27-3f82-408d-b5a1-19ebd7d5b711",
			"values": {
				"SceneLight_0_color": [0.7780392, 0.8156863, 0.9913726, 1],
				"SceneLight_1_color": [0.4282353, 0.4211765, 0.3458824, 1],
				"ambient_light_color": [0.3921569, 0.3921569, 0.3921569, 1],
				"SparkleRate": 5.3,
				"SpreadRate": 1.539,
				"MainTex_TexelSize": [0.001953125, 0.001953125, 512, 512],
				"MainTex": "texture_0eb4db27-3f82-408d-b5a1-19ebd7d5b711_MainTex"				
			},
			"name": "material_0eb4db27-3f82-408d-b5a1-19ebd7d5b711"
		}
	},
	"nodes": {
		"node_Stars_0eb4db27-3f82-408d-b5a1-19ebd7d5b711_0_0": {
			"name": "node_Stars_0eb4db27-3f82-408d-b5a1-19ebd7d5b711_0_0",
			"meshes": [
				"mesh_Stars_0eb4db27-3f82-408d-b5a1-19ebd7d5b711_0_0"
			],
			"matrix": [1, 0, 0, 0, 0, 1, 0, 0, 0, 0, 1, 0, 0, 0, 0, 1]
		},
		"node_SceneLight_0_-1114": {
			"name": "node_SceneLight_0_-1114",
			"light": "SceneLight_0",
			"matrix": [0.898794, 0.2191856, -0.3796406, 0, -0.4383712, 0.449397, -0.7783785, 0, -1.490116E-08, 0.8660254, 0.4999999, 0, 0, 0.07816665, 0.0220875, 1]
		},
		"node_SceneLight_1_-1120": {
			"name": "node_SceneLight_1_-1120",
			"light": "SceneLight_1",
			"matrix": [0.7660444, -0.4924039, -0.4131759, 0, -0.6427876, -0.5868242, -0.4924039, 0, 8.940697E-08, 0.6427876, -0.7660446, 0, 5.811453E-09, 0.0636562, -0.0602054, 1]
		}
	},
	"scene": "defaultScene",
	"scenes": {
		"defaultScene": {
			"nodes": [
				"node_Stars_0eb4db27-3f82-408d-b5a1-19ebd7d5b711_0_0",
				"node_SceneLight_0_-1114",
				"node_SceneLight_1_-1120"
			],
			"extras": {
				"TB_EnvironmentGuid": "580b4529-ac50-4fe9-b8d2-635765a14893",
				"TB_Environment": "Black",
				"TB_UseGradient": "true",
				"TB_SkyColorA": "0, 0, 0",
				"TB_SkyColorB": "0, 0, 0",
				"TB_SkyGradientDirection": "0, 1, 0",
				"TB_FogColor": "0.01960784, 0.01960784, 0.01960784",
				"TB_FogDensity": "0",
				"TB_SkyColorHorizon": "0, 0, 0",
				"TB_SkyColorZenith": "0, 0, 0"
			}
		}
	}
}