{
	"asset": {
		"generator": "Blocks",
		"version": "105",
		"copyright": "Unknown"
	},
	"buffers": {
		"model": {
			"byteLength": 119076,
			"type": "arraybuffer",
			"uri": "model.bin"
		}
	},
	"accessors": {
		"accessor_position_m0-PolyPaper16_-129464": {
			"bufferView": "vec3BufferView",
			"byteOffset": 0,
			"byteStride": 12,
			"componentType": 5126,
			"count": 2742,
			"max": [ -0.08436649, 1.114672, -2.29668 ],
			"min": [ -0.8090876, 0.08823997, -3.134798 ],
			"type": "VEC3"
		 },
		"accessor_normal_m0-PolyPaper16_-129464": {
			"bufferView": "vec3BufferView",
			"byteOffset": 32904,
			"byteStride": 12,
			"componentType": 5126,
			"count": 2742,
			"max": [ 0.999655, 0.9995638, 0.999355 ],
			"min": [ -0.999655, -0.9995636, -0.999674 ],
			"type": "VEC3"
		 },
		"accessor_color_m0-PolyPaper16_-129464": {
			"bufferView": "vec4BufferView",
			"byteOffset": 0,
			"byteStride": 16,
			"componentType": 5126,
			"count": 2742,
			"max": [ 1, 1, 1, 1 ],
			"min": [ 0.2980392, 0.5647059, 0.2313726, 1 ],
			"type": "VEC4"
		 },
		"accessor_indices_0_m0-PolyPaper16_-129464": {
			"bufferView": "ushortBufferView",
			"byteOffset": 0,
			"byteStride": 0,
			"componentType": 5123,
			"count": 4698,
			"max": [ 2741 ],
			"min": [ 0 ],
			"type": "SCALAR"
		 }
	},
	"bufferViews": {
		"ushortBufferView": {
			"buffer": "model",
			"byteLength": 9396,
			"byteOffset": 0,
			"target": 34963
		},
		"vec3BufferView": {
			"buffer": "model",
			"byteLength": 65808,
			"byteOffset": 9396,
			"target": 34962
		},
		"vec4BufferView": {
			"buffer": "model",
			"byteLength": 43872,
			"byteOffset": 75204,
			"target": 34962
		}
	},
	"meshes": {
		"mesh_m0-PolyPaper16_-129464": {
			"name": "mesh_m0-PolyPaper16_-129464",
			"primitives": [
				{
					"attributes": {
						"POSITION": "accessor_position_m0-PolyPaper16_-129464",
						"NORMAL": "accessor_normal_m0-PolyPaper16_-129464",
						"COLOR": "accessor_color_m0-PolyPaper16_-129464"
					},
					"indices": "accessor_indices_0_m0-PolyPaper16_-129464",
					"material": "material_mat16",
					"mode": 4
				}
			]
		}
	},
	"shaders": {
		"vertex_mat16": {
			"type": 35633,
			"uri": "https://vr.google.com/shaders/w/vs.glsl"
		},
		"fragment_mat16": {
			"type": 35632,
			"uri": "https://vr.google.com/shaders/w/fs.glsl"
		}
	},
	"programs": {
		"program_mat16": {
			"attributes": [
				"a_position",
				"a_normal",
				"a_color"				
			],
			"vertexShader": "vertex_mat16",
			"fragmentShader": "fragment_mat16"
		}
	},
	"techniques": {
		"technique_mat16": {
			"program": "program_mat16",
			"extras": {"gvrss" : "https://vr.google.com/shaders/w/gvrss/paper.json"},
			"parameters": {
				"position": {
					"type": 35665,
					"semantic": "POSITION"
				},
				"normal": {
					"type": 35665,
					"semantic": "NORMAL"
				},
				"color": {
					"type": 35666,
					"semantic": "COLOR"
				},
				"modelViewMatrix": {
					"type": 35676,
					"semantic": "MODELVIEW"
				},
				"projectionMatrix": {
					"type": 35676,
					"semantic": "PROJECTION"
				},
				"normalMatrix": {
					"type": 35675,
					"semantic": "MODELVIEWINVERSETRANSPOSE"
				},
				"color": {
					"type": 35666
				},
				"roughness": {
					"type": 5126
				},
				"metallic": {
					"type": 5126
				},
				"light0Pos": {
					"type": 35666
				},
				"light0Color": {
					"type": 35666
				},
				"light1Pos": {
					"type": 35666
				},
				"light1Color": {
					"type": 35666
				}				
			},
			"attributes": {
				"a_position": "position",
				"a_normal": "normal",
				"a_color": "color"				
			},
			"uniforms": {
				"u_modelViewMatrix": "modelViewMatrix",
				"u_projectionMatrix": "projectionMatrix",
				"u_normalMatrix": "normalMatrix",
				"u_color": "color",
				"u_roughness": "roughness",
				"u_metallic": "metallic",
				"u_light0Pos": "light0Pos",
				"u_light0Color": "light0Color",
				"u_light1Pos": "light1Pos",
				"u_light1Color": "light1Color"				
			},
			"states": {
				"enable": [
					2929,
					2884
				],
				"functions": {
					"cullFace": [1029]
				}
			}
		}
	},
	"materials": {
		"material_mat16": {
			"technique": "technique_mat16",
			"values": {
				"color": [0.4705882, 0.5647059, 0.6117647, 1],
				"roughness": 0.72,
				"metallic": 0,
				"light0Pos": [-0.02, 4.11, -0.54, 0],
				"light0Color": [0.8, 0.8, 0.8, 0],
				"light1Pos": [0.02, -4.11, 0.54, 0],
				"light1Color": [0.64, 0.5647059, 0.5647059, 0]				
			},
			"name": "material_mat16"
		}
	},
	"nodes": {
		"node_MeshObject-1849146752-PolyPaper16": {
			"name": "node_MeshObject-1849146752-PolyPaper16",
			"meshes": [
				"mesh_m0-PolyPaper16_-129464"
			],
			"matrix": [1, 0, 0, 0, 0, 1, 0, 0, 0, 0, 1, 0, 0, 0, 0, 1]
		}
	},
	"scene": "defaultScene",
	"scenes": {
		"defaultScene": {
			"nodes": [
				"node_MeshObject-1849146752-PolyPaper16"
			],
			"extras": {

			}
		}
	}
}