{
	"asset": {
		"generator": "Blocks",
		"version": "1.0.3",
		"copyright": "Unknown"
	},
	"buffers": {
		"model": {
			"byteLength": 259376,
			"type": "arraybuffer",
			"uri": "model.bin"
		}
	},
	"accessors": {
		"accessor_position_m0-PolyGlass24_-78806": {
			"bufferView": "vec3BufferView",
			"byteOffset": 0,
			"byteStride": 12,
			"componentType": 5126,
			"count": 1824,
			"max": [ 1.921449, 2.596524, 0.6596923 ],
			"min": [ -1.46086, -0.1520572, -2.227706 ],
			"type": "VEC3"
		 },
		"accessor_normal_m0-PolyGlass24_-78806": {
			"bufferView": "vec3BufferView",
			"byteOffset": 21888,
			"byteStride": 12,
			"componentType": 5126,
			"count": 1824,
			"max": [ 0.9971296, 0.9641629, 0.9949923 ],
			"min": [ -0.9979078, -0.9998003, -0.9968877 ],
			"type": "VEC3"
		 },
		"accessor_color_m0-PolyGlass24_-78806": {
			"bufferView": "vec4BufferView",
			"byteOffset": 0,
			"byteStride": 16,
			"componentType": 5126,
			"count": 1824,
			"max": [ 0.8392157, 0.8392157, 0.8392157, 0.2509804 ],
			"min": [ 0.8392157, 0.8392157, 0.8392157, 0.2509804 ],
			"type": "VEC4"
		 },
		"accessor_indices_0_m0-PolyGlass24_-78806": {
			"bufferView": "ushortBufferView",
			"byteOffset": 0,
			"byteStride": 0,
			"componentType": 5123,
			"count": 2304,
			"max": [ 1823 ],
			"min": [ 0 ],
			"type": "SCALAR"
		 },
		"accessor_position_m1-PolyPaper15_-155728": {
			"bufferView": "vec3BufferView",
			"byteOffset": 43776,
			"byteStride": 12,
			"componentType": 5126,
			"count": 4292,
			"max": [ 3.293252, 4.169963, 0.6222246 ],
			"min": [ -3.028173, -2.580039, -3.235038 ],
			"type": "VEC3"
		 },
		"accessor_normal_m1-PolyPaper15_-155728": {
			"bufferView": "vec3BufferView",
			"byteOffset": 95280,
			"byteStride": 12,
			"componentType": 5126,
			"count": 4292,
			"max": [ 1, 1, 1 ],
			"min": [ -1, -1, -1 ],
			"type": "VEC3"
		 },
		"accessor_color_m1-PolyPaper15_-155728": {
			"bufferView": "vec4BufferView",
			"byteOffset": 29184,
			"byteStride": 16,
			"componentType": 5126,
			"count": 4292,
			"max": [ 1, 1, 1, 1 ],
			"min": [ 0.1019608, 0.1019608, 0, 1 ],
			"type": "VEC4"
		 },
		"accessor_indices_0_m1-PolyPaper15_-155728": {
			"bufferView": "ushortBufferView",
			"byteOffset": 4608,
			"byteStride": 0,
			"componentType": 5123,
			"count": 5064,
			"max": [ 4291 ],
			"min": [ 0 ],
			"type": "SCALAR"
		 }
	},
	"bufferViews": {
		"ushortBufferView": {
			"buffer": "model",
			"byteLength": 14736,
			"byteOffset": 0,
			"target": 34963
		},
		"vec3BufferView": {
			"buffer": "model",
			"byteLength": 146784,
			"byteOffset": 14736,
			"target": 34962
		},
		"vec4BufferView": {
			"buffer": "model",
			"byteLength": 97856,
			"byteOffset": 161520,
			"target": 34962
		}
	},
	"meshes": {
		"mesh_m0-PolyGlass24_-78806": {
			"name": "mesh_m0-PolyGlass24_-78806",
			"primitives": [
				{
					"attributes": {
						"POSITION": "accessor_position_m0-PolyGlass24_-78806",
						"NORMAL": "accessor_normal_m0-PolyGlass24_-78806",
						"COLOR": "accessor_color_m0-PolyGlass24_-78806"
					},
					"indices": "accessor_indices_0_m0-PolyGlass24_-78806",
					"material": "material_mat24",
					"mode": 4
				}
			]
		},
		"mesh_m1-PolyPaper15_-155728": {
			"name": "mesh_m1-PolyPaper15_-155728",
			"primitives": [
				{
					"attributes": {
						"POSITION": "accessor_position_m1-PolyPaper15_-155728",
						"NORMAL": "accessor_normal_m1-PolyPaper15_-155728",
						"COLOR": "accessor_color_m1-PolyPaper15_-155728"
					},
					"indices": "accessor_indices_0_m1-PolyPaper15_-155728",
					"material": "material_mat15",
					"mode": 4
				}
			]
		}
	},
	"shaders": {
		"vertex_mat24": {
			"type": 35633,
			"uri": "https://vr.google.com/shaders/w/glassVS.glsl"
		},
		"fragment_mat24": {
			"type": 35632,
			"uri": "https://vr.google.com/shaders/w/glassFS.glsl"
		},
		"vertex_mat15": {
			"type": 35633,
			"uri": "https://vr.google.com/shaders/w/vs.glsl"
		},
		"fragment_mat15": {
			"type": 35632,
			"uri": "https://vr.google.com/shaders/w/fs.glsl"
		}
	},
	"programs": {
		"program_mat24": {
			"attributes": [
				"a_position",
				"a_normal",
				"a_color"				
			],
			"vertexShader": "vertex_mat24",
			"fragmentShader": "fragment_mat24"
		},
		"program_mat15": {
			"attributes": [
				"a_position",
				"a_normal",
				"a_color"				
			],
			"vertexShader": "vertex_mat15",
			"fragmentShader": "fragment_mat15"
		}
	},
	"techniques": {
		"technique_mat24": {
			"program": "program_mat24",
			"extras": {"gvrss" : "https://vr.google.com/shaders/w/gvrss/glass.json"},
			"parameters": {
				"position": {
					"type": 35665,
					"semantic": "POSITION"
				},
				"normal": {
					"type": 35665,
					"semantic": "NORMAL"
				},
				"color": {
					"type": 35666,
					"semantic": "COLOR"
				},
				"modelViewMatrix": {
					"type": 35676,
					"semantic": "MODELVIEW"
				},
				"projectionMatrix": {
					"type": 35676,
					"semantic": "PROJECTION"
				},
				"normalMatrix": {
					"type": 35675,
					"semantic": "MODELVIEWINVERSETRANSPOSE"
				},
				"color": {
					"type": 35666
				},
				"roughness": {
					"type": 5126
				},
				"metallic": {
					"type": 5126
				},
				"light0Pos": {
					"type": 35666
				},
				"light0Color": {
					"type": 35666
				},
				"light1Pos": {
					"type": 35666
				},
				"light1Color": {
					"type": 35666
				}				
			},
			"attributes": {
				"a_position": "position",
				"a_normal": "normal",
				"a_color": "color"				
			},
			"uniforms": {
				"u_modelViewMatrix": "modelViewMatrix",
				"u_projectionMatrix": "projectionMatrix",
				"u_normalMatrix": "normalMatrix",
				"u_color": "color",
				"u_roughness": "roughness",
				"u_metallic": "metallic",
				"u_light0Pos": "light0Pos",
				"u_light0Color": "light0Color",
				"u_light1Pos": "light1Pos",
				"u_light1Color": "light1Color"				
			},
			"states": {
				"enable": [
					2929,
					3042
				],
				"functions": {
					"blendFuncSeparate": [775, 774, 773, 772],
					"depthMask": [true]
				}
			}
		},
		"technique_mat15": {
			"program": "program_mat15",
			"extras": {"gvrss" : "https://vr.google.com/shaders/w/gvrss/paper.json"},
			"parameters": {
				"position": {
					"type": 35665,
					"semantic": "POSITION"
				},
				"normal": {
					"type": 35665,
					"semantic": "NORMAL"
				},
				"color": {
					"type": 35666,
					"semantic": "COLOR"
				},
				"modelViewMatrix": {
					"type": 35676,
					"semantic": "MODELVIEW"
				},
				"projectionMatrix": {
					"type": 35676,
					"semantic": "PROJECTION"
				},
				"normalMatrix": {
					"type": 35675,
					"semantic": "MODELVIEWINVERSETRANSPOSE"
				},
				"color": {
					"type": 35666
				},
				"roughness": {
					"type": 5126
				},
				"metallic": {
					"type": 5126
				},
				"light0Pos": {
					"type": 35666
				},
				"light0Color": {
					"type": 35666
				},
				"light1Pos": {
					"type": 35666
				},
				"light1Color": {
					"type": 35666
				}				
			},
			"attributes": {
				"a_position": "position",
				"a_normal": "normal",
				"a_color": "color"				
			},
			"uniforms": {
				"u_modelViewMatrix": "modelViewMatrix",
				"u_projectionMatrix": "projectionMatrix",
				"u_normalMatrix": "normalMatrix",
				"u_color": "color",
				"u_roughness": "roughness",
				"u_metallic": "metallic",
				"u_light0Pos": "light0Pos",
				"u_light0Color": "light0Color",
				"u_light1Pos": "light1Pos",
				"u_light1Color": "light1Color"				
			},
			"states": {
				"enable": [
					2929,
					2884
				],
				"functions": {
					"cullFace": [1029]
				}
			}
		}
	},
	"materials": {
		"material_mat24": {
			"technique": "technique_mat24",
			"values": {
				"color": [0.8392157, 0.8392157, 0.8392157, 0.2509804],
				"roughness": 0,
				"metallic": 0,
				"light0Pos": [-0.02, 4.11, -0.54, 0],
				"light0Color": [0.8, 0.8, 0.8, 0],
				"light1Pos": [0.02, -4.11, 0.54, 0],
				"light1Color": [0.64, 0.5647059, 0.5647059, 0]				
			},
			"name": "material_mat24"
		},
		"material_mat15": {
			"technique": "technique_mat15",
			"values": {
				"color": [0.8117647, 0.8470588, 0.8627451, 1],
				"roughness": 0.72,
				"metallic": 0,
				"light0Pos": [-0.02, 4.11, -0.54, 0],
				"light0Color": [0.8, 0.8, 0.8, 0],
				"light1Pos": [0.02, -4.11, 0.54, 0],
				"light1Color": [0.64, 0.5647059, 0.5647059, 0]				
			},
			"name": "material_mat15"
		}
	},
	"nodes": {
		"node_MeshObject-388235264-PolyGlass24": {
			"name": "node_MeshObject-388235264-PolyGlass24",
			"meshes": [
				"mesh_m0-PolyGlass24_-78806"
			],
			"matrix": [1, 0, 0, 0, 0, 1, 0, 0, 0, 0, 1, 0, 0, 0, 0, 1]
		},
		"node_MeshObject-1344024256-PolyPaper15": {
			"name": "node_MeshObject-1344024256-PolyPaper15",
			"meshes": [
				"mesh_m1-PolyPaper15_-155728"
			],
			"matrix": [1, 0, 0, 0, 0, 1, 0, 0, 0, 0, 1, 0, 0, 0, 0, 1]
		}
	},
	"scene": "defaultScene",
	"scenes": {
		"defaultScene": {
			"nodes": [
				"node_MeshObject-388235264-PolyGlass24",
				"node_MeshObject-1344024256-PolyPaper15"
			],
			"extras": {

			}
		}
	}
}